# xmcd CD database file
#
# Track frame offsets:
#	150
#	13298
#	41299
#	60840
#	75500
#	90470
#	109981
#	124618
#	140065
#	161606
#	180378
#	208840
#	229614
#
# Disc length: 3305 seconds
#
# Revision: 0
# Processed by: cddbd v1.5.2PL0 Copyright (c) Steve Scherf et al.
# Submitted via: CDex 1.51
#
DISCID=a00ce70d
DTITLE=Michael McCloud - Live As I Can Be - Disc 2
DYEAR=2007
DGENRE=Country
TTITLE0=Drinkin'
TTITLE1=Most I Miss The Music
TTITLE2=You Pulled Me Through
TTITLE3=Wild-Eyed Willie
TTITLE4=They Don't Make 'Em Like You Anymore
TTITLE5=I'll Never Really Love You
TTITLE6=Aja's Lullaby
TTITLE7=Aunt Margaret's hat
TTITLE8=Pool Shootin' Woman
TTITLE9=Memorial
TTITLE10=She Gotta butt
TTITLE11=TouristTown Bar
TTITLE12=Nothin' I Can Do About It
EXTD=YEAR: 2007
EXTT0=
EXTT1=
EXTT2=
EXTT3=
EXTT4=
EXTT5=
EXTT6=
EXTT7=
EXTT8=
EXTT9=
EXTT10=
EXTT11=
EXTT12=
PLAYORDER=
